<svg xmlns="http://www.w3.org/2000/svg" viewBox="251 240 120.37 99.46"><path d="M360.76 276.69c.19-.57.26-1.16.26-1.78 0-10.41-24.72-15.83-49.19-15.83s-49.16 5.42-49.16 15.83c0 .62.12 1.21.31 1.78h-.31v29.62c0 4.52 3.66 8.18 8.18 8.18v-30.48c.21.12.4.24.64.33.95.41 1.99.82 3.08 1.24 3.71 1.4 6.15 4.98 6.15 8.94v3.28-.01.48c-.12 1.88-4.4 3.38-6.3 3.38 1.9 0 6.18 1.47 6.3 3.4V314.47H306.94v-23.84c.14 0 .29.02.38.02 1.5.02 3.02.07 4.52.07 1.38 0 2.62.55 3.52 1.45.9.9 1.45 2.14 1.45 3.49v17.9c0 .5.4.9.9.9h6.37c.5 0 .9-.4.9-.9v-17.19c0-3.49 2.62-6.44 6.11-6.87 1.4-.17 2.76-.36 3.76-.52v25.48h8.18v-6.31.02-1.46a4.94 4.94 0 0 1 4.63-3.84c.08.03.16.03.25.03s.16 0 .25-.03c2.5.11 4.5 2.03 4.74 4.49v7.1c4.52 0 8.18-3.66 8.18-8.18v-29.62h-.31Zm-89.27 1.64c-.24-.14-.43-.29-.64-.4l-1.74-1.24c-.67-.62-1.02-1.26-1.02-1.78 0-3.54 15.36-10.34 43.6-10.37 28.36.02 43.89 6.82 43.89 10.37 0 .52-.36 1.16-1.05 1.78l-1.64 1.19c-1.83 1.16-4.54 2.33-8.18 3.4.02-.14.02-.31.02-.45 0-6.37-16.55-9.72-32.85-9.72S279 274.46 279 280.83c0 .17 0 .31.05.48-3.21-.93-5.75-1.95-7.56-2.97Zm49.17 10.58v-.12c0-.43-.1-.88-.24-1.26a3.576 3.576 0 0 0-3.38-2.33h-.24c-1.66.05-3.38.07-5.16.07-1.45 0-2.9-.02-4.33-.05-2.85-.1-5.56-.21-8.13-.43-3.57-.29-6.82-.69-9.77-1.16-2.52-.43-4.78-.88-6.85-1.38-.55-.5-.86-.95-.86-1.43 0-2.85 11.77-6.99 30.17-6.99s30.14 4.14 30.14 6.99c0 .45-.29.93-.83 1.4-1.93.45-4.04.9-6.35 1.28-2.97.48-6.28.9-9.87 1.21-.19.02-.38.02-.57.07-.05-.05-.12-.05-.17-.05-.24 0-.48.05-.74.1 0 0-.02 0-.05.02-1.33.26-2.4 1.31-2.71 2.64-.07.29-.1.55-.1.86 0 .17 0 .36.05.52l-.05.02Zm-26.83 24.93c-2.73 0-4.93-2.21-4.93-4.93v-14.75c0-2.71 2.37-4.81 5.06-4.49l1.41.17c1.93.23 3.39 1.88 3.39 3.82v15.52c-.12 2.6-2.27 4.66-4.93 4.66Zm49.2-14.29v-3.75c.02-4.85 3.09-9.2 7.63-10.89.88-.31 1.66-.62 2.23-.9v15.54h-9.87Z" style="fill:#fff"/></svg>